<?xml version="1.0" encoding="UTF-8" standalone="no"?>
<!DOCTYPE svg PUBLIC "-//W3C//DTD SVG 1.1//EN" "http://www.w3.org/Graphics/SVG/1.1/DTD/svg11.dtd">
<svg version="1.1" xmlns="http://www.w3.org/2000/svg" xmlns:xlink="http://www.w3.org/1999/xlink" preserveAspectRatio="xMidYMid meet" viewBox="0 0 640 640" width="640" height="640"><defs><path d="M2.47 0L640 0L657.35 291.16C621.23 300.59 598.66 306.49 589.63 308.85C552.83 318.47 513.81 314.68 479.55 298.18C467.44 292.35 490.16 303.29 479.55 298.18C440.46 279.36 395.95 275.1 354 286.17C325.53 293.68 319.55 295.26 294.69 301.82C239.62 316.36 182.73 322.9 125.79 321.25C117.22 321 142.96 321.75 125.79 321.25C97.56 320.43 69.86 313.37 44.67 300.59C35.56 295.96 12.76 284.39 -23.71 265.88L2.47 0Z" id="e3ZPdQjeIG"></path></defs><g><g><g><use xlink:href="#e3ZPdQjeIG" opacity="1" fill="#f04141" fill-opacity="1"></use></g></g></g></svg>